import midi

vathapi = midi.Pattern(tracks=[[midi.TimeSignatureEvent(tick=0, data=[4, 2, 24, 8]),
    midi.KeySignatureEvent(tick=0, data=[0, 0]),
    midi.EndOfTrackEvent(tick=1, data=[])],
    [ #midi.ControlChangeEvent(tick=0, channel=0, data=[91, 58]),
    # midi.ControlChangeEvent(tick=0, channel=0, data=[10, 69]),
    # midi.ControlChangeEvent(tick=0, channel=0, data=[32, 0]),
    # midi.ControlChangeEvent(tick=0, channel=0, data=[0, 0]),
    # midi.ProgramChangeEvent(tick=0, channel=0, data=[24]),
    midi.NoteOnEvent(tick=0, channel=0, data=[midi.E_4, 72]),
    midi.NoteOnEvent(tick=600, channel=0, data=[midi.E_4, 0]),
    midi.NoteOnEvent(tick=0, channel=0, data=[midi.D_4, 72]),
    midi.NoteOnEvent(tick=400, channel=0, data=[midi.D_4, 0]),
    midi.NoteOnEvent(tick=0, channel=0, data=[midi.C_4, 72]),
    midi.NoteOnEvent(tick=200, channel=0, data=[midi.C_4, 0]),
    midi.NoteOnEvent(tick=0, channel=0, data=[midi.C_4, 72]),
    midi.NoteOnEvent(tick=200, channel=0, data=[midi.C_4, 0]),
    midi.NoteOnEvent(tick=0, channel=0, data=[midi.B_3, 72]),
    midi.NoteOnEvent(tick=200, channel=0, data=[midi.B_3, 0]),
    midi.NoteOnEvent(tick=0, channel=0, data=[midi.G_3, 72]),
    midi.NoteOnEvent(tick=200, channel=0, data=[midi.G_3, 0]),
    midi.NoteOnEvent(tick=0, channel=0, data=[midi.D_4, 72]),
    midi.NoteOnEvent(tick=400, channel=0, data=[midi.D_4, 0]),
    midi.NoteOnEvent(tick=0, channel=0, data=[midi.B_3, 72]),
    midi.NoteOnEvent(tick=200, channel=0, data=[midi.B_3, 0]),
    midi.NoteOnEvent(tick=0, channel=0, data=[midi.D_4, 72]),
    midi.NoteOnEvent(tick=400, channel=0, data=[midi.D_4, 0]),
    midi.NoteOnEvent(tick=0, channel=0, data=[midi.C_4, 72]),
    midi.NoteOnEvent(tick=100, channel=0, data=[midi.C_4, 0]),
    midi.NoteOnEvent(tick=0, channel=0, data=[midi.B_3, 72]),
    midi.NoteOnEvent(tick=100, channel=0, data=[midi.B_3, 0]),
    midi.NoteOnEvent(tick=0, channel=0, data=[midi.C_4, 72]),
    midi.NoteOnEvent(tick=100, channel=0, data=[midi.C_4, 0]),
    midi.NoteOnEvent(tick=0, channel=0, data=[midi.D_4, 72]),
    midi.NoteOnEvent(tick=100, channel=0, data=[midi.D_4, 0]),  
    midi.EndOfTrackEvent(tick=1, data=[])]])
  
midi.write_midifile("vathapi.mid", vathapi)

